
<svg width="472px" height="437px" viewBox="0 0 472 437" version="1.1" xmlns="http://www.w3.org/2000/svg" xmlns:xlink="http://www.w3.org/1999/xlink">
    <!-- Generator: Sketch 43.2 (39069) - http://www.bohemiancoding.com/sketch -->
    <desc>Created with Sketch.</desc>
    <defs></defs>
    <g id="Page-1" stroke="none" stroke-width="1" fill="none" fill-rule="evenodd">
        <g id="download-(1)" fill-rule="nonzero" fill="#FFFFFF">
            <path d="M457.7,213.15 C450.2,213.15 444.2,219.15 444.2,226.65 L444.2,349.45 C444.2,382.85 417,409.95 383.7,409.95 L87.5,409.95 C54.1,409.95 27,382.75 27,349.45 L27,224.65 C27,217.15 21,211.15 13.5,211.15 C6,211.15 0,217.15 0,224.65 L0,349.45 C0,397.75 39.3,436.95 87.5,436.95 L383.7,436.95 C432,436.95 471.2,397.65 471.2,349.45 L471.2,226.65 C471.2,219.25 465.2,213.15 457.7,213.15 Z" id="Shape"></path>
            <path d="M226.1,329.75 C228.7,332.35 232.2,333.75 235.6,333.75 C239,333.75 242.5,332.45 245.1,329.75 L330.9,243.95 C336.2,238.65 336.2,230.15 330.9,224.85 C325.6,219.55 317.1,219.55 311.8,224.85 L249.1,287.65 L249.1,13.75 C249.1,6.25 243.1,0.25 235.6,0.25 C228.1,0.25 222.1,6.25 222.1,13.75 L222.1,287.65 L159.3,224.85 C154,219.55 145.5,219.55 140.2,224.85 C134.9,230.15 134.9,238.65 140.2,243.95 L226.1,329.75 Z" id="Shape"></path>
        </g>
    </g>
</svg>