
<svg width="36px" height="36px" viewBox="0 0 36 36" version="1.1" xmlns="http://www.w3.org/2000/svg" xmlns:xlink="http://www.w3.org/1999/xlink">
    <!-- Generator: Sketch 43.2 (39069) - http://www.bohemiancoding.com/sketch -->
    <desc>Created with Sketch.</desc>
    <defs></defs>
    <g id="Page-1" stroke="none" stroke-width="1" fill="none" fill-rule="evenodd">
        <g id="credit-card" fill-rule="nonzero" fill="#47935E">
            <path d="M35.0443828,12.3543281 L23.6448984,0.954984375 C23.0295234,0.339679687 22.2089062,0.0007734375 21.3340781,0.0007734375 C20.4593203,0.0007734375 19.6386328,0.339539062 19.0232578,0.95484375 L0.954210937,19.0239609 C0.33890625,19.6393359 0,20.4598828 0,21.3347109 C0,22.2095391 0.33890625,23.0302266 0.954210937,23.6454609 L2.35989844,25.0511484 C2.36003906,25.0512187 2.36010937,25.0513594 2.36025,25.0515 C2.36039062,25.0516406 2.36053125,25.0517812 2.36067187,25.0519219 L11.8078594,34.4991094 L10.4997656,34.4991094 C10.085625,34.4991094 9.7498125,34.8348516 9.7498125,35.2490625 C9.7498125,35.6632031 10.085625,35.9990156 10.4997656,35.9990156 L14.6614922,35.9990156 C14.6624766,35.9990156 14.6633906,35.9990859 14.664375,35.9990859 C14.6653594,35.9990859 14.6662734,35.9990156 14.6672578,35.9990156 L25.4991094,35.9991562 C25.91325,35.9991562 26.2490625,35.6633437 26.2490625,35.2492031 C26.2490625,34.8349922 25.91325,34.49925 25.4991094,34.49925 L17.5211719,34.4991094 L35.0444531,16.9758281 C36.3185156,15.701625 36.3185156,13.6283906 35.0443828,12.3543281 Z M33.9837891,15.9152344 L15.9146016,33.9844219 C15.5832187,34.3157344 15.14025,34.4984062 14.6671172,34.4991094 L14.6614219,34.4991094 C14.1884297,34.4983359 13.7456016,34.3157344 13.4143594,33.9844219 L3.95121094,24.5212031 L21.3039844,7.16828906 C21.5968359,6.8754375 21.5968359,6.40054687 21.3039844,6.10769531 C21.0110625,5.81484375 20.5363125,5.81484375 20.2433203,6.10776562 L2.89054687,23.4606797 L2.01473437,22.5848672 C1.68278906,22.2529219 1.49997656,21.8089687 1.49997656,21.3347812 C1.49997656,20.8605937 1.68278906,20.4165703 2.01480469,20.0845547 L20.0838516,2.01550781 C20.4158672,1.6835625 20.8598906,1.50075 21.3340781,1.50075 C21.8082656,1.50075 22.2522891,1.6835625 22.5843047,2.01557812 L26.6415469,6.07275 L9.2885625,23.425875 C8.99571094,23.7186562 8.99571094,24.1935469 9.2885625,24.4865391 C9.43502344,24.6329297 9.62697656,24.706125 9.81885937,24.706125 C10.0107422,24.706125 10.2026953,24.6328594 10.3491562,24.4864687 L27.7021406,7.13341406 L33.9837891,13.4148516 C34.6730625,14.1041953 34.6729922,15.2258906 33.9837891,15.9152344 Z" id="Shape"></path>
            <path d="M18.4781953,21.66075 C18.1853437,21.3678984 17.7105937,21.3679687 17.4175312,21.66075 L11.5159219,27.5622891 C11.2230703,27.8551406 11.2230703,28.3299609 11.5159219,28.6229531 C11.6623828,28.7694141 11.8543359,28.8426094 12.0462188,28.8426094 C12.2381016,28.8426094 12.4300547,28.7693437 12.5765156,28.6229531 L18.478125,22.7214141 C18.7710469,22.4284219 18.7710469,21.9536016 18.4781953,21.66075 Z" id="Shape"></path>
            <path d="M16.0576172,27.2630391 L13.6371094,29.6835469 C13.3442578,29.9763984 13.3442578,30.4512891 13.6371094,30.7442109 C13.7835703,30.8906016 13.9755234,30.9638672 14.1674062,30.9638672 C14.3594297,30.9638672 14.5512422,30.8906016 14.6977031,30.7442109 L17.1182109,28.3237031 C17.4110625,28.0308516 17.4110625,27.5559609 17.1182109,27.2630391 C16.8253594,26.9701172 16.3506797,26.9701172 16.0576172,27.2630391 Z" id="Shape"></path>
            <path d="M18.2850469,25.0358203 L17.9668828,25.3539141 C17.6739609,25.6467656 17.6739609,26.1215859 17.9668125,26.4145781 C18.1132031,26.5610391 18.3052266,26.6343047 18.4971094,26.6343047 C18.6889922,26.6343047 18.8809453,26.5610391 19.0273359,26.4145781 L19.3455,26.0964844 C19.6384219,25.8036328 19.6384219,25.3288125 19.3455703,25.0358906 C19.0528594,24.7430391 18.5778984,24.7429688 18.2850469,25.0358203 Z" id="Shape"></path>
            <path d="M28.6223203,11.5166953 C28.4816953,11.3760703 28.2909375,11.2970391 28.0920234,11.2970391 C27.8931094,11.2970391 27.7024219,11.3760703 27.5617266,11.5166953 L24.3797344,14.6986172 C24.2391094,14.8393125 24.1600781,15.03 24.1600781,15.2289141 C24.1600781,15.4278281 24.2391094,15.6185859 24.3797344,15.7592109 L26.5010625,17.8803281 C26.6475234,18.0267891 26.8394766,18.0999844 27.0313594,18.0999844 C27.2233828,18.0999844 27.4151953,18.0267188 27.5616562,17.8803281 L30.7435078,14.6985469 C31.0363594,14.4056953 31.0363594,13.9308047 30.7435078,13.6379531 L28.6223203,11.5166953 Z M27.0312891,16.2895078 L25.970625,15.2289141 L28.0919531,13.1076562 L29.1525469,14.1683203 L27.0312891,16.2895078 Z" id="Shape"></path>
            <path d="M22.5238359,5.63807812 C22.7158594,5.63807812 22.9078125,5.5648125 23.0542031,5.41828125 L23.3723672,5.09997656 C23.6651484,4.80705469 23.6650781,4.33216406 23.3721563,4.03938281 C23.0793047,3.74660156 22.6043438,3.74667187 22.3115625,4.03959375 L21.9933984,4.35789844 C21.7006172,4.65082031 21.7006875,5.12571094 21.9936094,5.41849219 C22.1400703,5.56495312 22.3318828,5.63807812 22.5238359,5.63807812 Z" id="Shape"></path>
            <path d="M7.53855469,25.1758828 L7.22039062,25.4940469 C6.92753906,25.7868281 6.92753906,26.2617187 7.22039062,26.5547109 C7.36685156,26.7011016 7.55880469,26.7742969 7.7506875,26.7742969 C7.94257031,26.7742969 8.13452344,26.7011016 8.28098437,26.5547109 L8.59914844,26.2365469 C8.892,25.943625 8.892,25.4687344 8.59914844,25.1758828 C8.30622656,24.8829609 7.83147656,24.8829609 7.53855469,25.1758828 Z" id="Shape"></path>
        </g>
    </g>
</svg>