
<svg width="227px" height="313px" viewBox="0 0 227 313" version="1.1" xmlns="http://www.w3.org/2000/svg" xmlns:xlink="http://www.w3.org/1999/xlink">
    <!-- Generator: Sketch 43.2 (39069) - http://www.bohemiancoding.com/sketch -->
    <desc>Created with Sketch.</desc>
    <defs></defs>
    <g id="Page-1" stroke="none" stroke-width="1" fill="none" fill-rule="evenodd">
        <g id="lock" fill-rule="nonzero">
            <path d="M50.172293,131.037025 L50.172293,89.7180132 C50.172293,55.1555985 78.4984332,26.8301604 113.643887,26.8301604 C148.78934,26.8301604 177.115481,54.8957884 177.115481,89.7180132 L177.115481,131.037025 L203.343073,131.037025 L203.343073,89.7180132 C203.343073,40.8629744 163.214632,0.843780005 113.643887,0.843780005 C64.3353631,0.843780005 23.9447005,40.6031642 23.9447005,89.7180132 L23.9447005,131.037025 L50.172293,131.037025 L50.172293,131.037025 Z" id="Shape" fill="#47935E"></path>
            <rect id="Rectangle-path" fill="#47935E" x="0.339325758" y="127.918536" width="226.608348" height="185.024684"></rect>
            <path d="M132.789944,234.203882 C132.789944,223.809177 124.135078,215.233909 113.643887,215.233909 C103.152695,215.233909 94.4978293,223.809177 94.4978293,234.203882 C94.4978293,242.51934 99.7430384,249.275937 107.087569,252.134615 L107.087569,278.640615 C107.087569,282.278724 109.972782,285.137402 113.64466,285.137402 C117.316539,285.137402 120.201752,282.278724 120.201752,278.640615 L120.201752,251.874805 C127.544735,249.275937 132.789944,242.25953 132.789944,234.203882 Z" id="Shape" fill="#FFFFFF"></path>
        </g>
    </g>
</svg>