
<svg width="44px" height="54px" viewBox="0 0 44 54" version="1.1" xmlns="http://www.w3.org/2000/svg" xmlns:xlink="http://www.w3.org/1999/xlink">
    <!-- Generator: Sketch 43.2 (39069) - http://www.bohemiancoding.com/sketch -->
    <desc>Created with Sketch.</desc>
    <defs></defs>
    <g id="Page-1" stroke="none" stroke-width="1" fill="none" fill-rule="evenodd">
        <g id="locked" fill-rule="nonzero" fill="#FFFFFF">
            <path d="M38,20.113 L38,14.5 C38,6.505 30.822,0 22,0 C13.178,0 6,6.505 6,14.5 L6,20.113 C2.599,20.699 0,23.663 0,27.23 L0,46.772 C0,50.757 3.243,54 7.229,54 L36.771,54 C40.757,54 44,50.757 44,46.771 L44,27.229 C44,23.663 41.401,20.699 38,20.113 Z M8,14.5 C8,7.607 14.28,2 22,2 C29.72,2 36,7.607 36,14.5 L36,20 L8,20 L8,14.5 Z M26,38 C26,40.206 24.206,42 22,42 C19.794,42 18,40.206 18,38 L18,32 C18,29.794 19.794,28 22,28 C24.206,28 26,29.794 26,32 L26,38 Z" id="Shape"></path>
        </g>
    </g>
</svg>