
<svg width="14px" height="16px" viewBox="0 0 14 16" version="1.1" xmlns="http://www.w3.org/2000/svg" xmlns:xlink="http://www.w3.org/1999/xlink">
    <!-- Generator: Sketch 43.2 (39069) - http://www.bohemiancoding.com/sketch -->
    <desc>Created with Sketch.</desc>
    <defs></defs>
    <g id="Page-1" stroke="none" stroke-width="1" fill="none" fill-rule="evenodd">
        <g id="pdf" fill-rule="nonzero">
            <path d="M3,0 C2.45,0 2,0.45 2,1 L2,15 C2,15.55 2.45,16 3,16 L13,16 C13.55,16 14,15.55 14,15 L14,4 L10,0 L3,0 Z" id="Shape" fill="#E2E5E7"></path>
            <path d="M11,4 L14,4 L10,0 L10,3 C10,3.55 10.45,4 11,4 Z" id="Shape" fill="#B0B7BD"></path>
            <polygon id="Shape" fill="#CAD1D8" points="14 7 11 4 14 4"></polygon>
            <path d="M12,13 C12,13.275 11.775,13.5 11.5,13.5 L0.5,13.5 C0.225,13.5 0,13.275 0,13 L0,8 C0,7.725 0.225,7.5 0.5,7.5 L11.5,7.5 C11.775,7.5 12,7.725 12,8 L12,13 Z" id="Shape" fill="#F15642"></path>
            <g id="Group" transform="translate(2.156250, 9.187500)" fill="#FFFFFF">
                <path d="M0.02325,0.286 C0.02325,0.154 0.12725,0.01 0.29475,0.01 L1.21825,0.01 C1.73825,0.01 2.20625,0.358 2.20625,1.025 C2.20625,1.657 1.73825,2.009 1.21825,2.009 L0.55075,2.009 L0.55075,2.537 C0.55075,2.713 0.43875,2.8125 0.29475,2.8125 C0.16275,2.8125 0.02325,2.713 0.02325,2.537 L0.02325,0.286 L0.02325,0.286 Z M0.55075,0.5135 L0.55075,1.5095 L1.21825,1.5095 C1.48625,1.5095 1.69825,1.273 1.69825,1.025 C1.69825,0.7455 1.48625,0.5135 1.21825,0.5135 L0.55075,0.5135 Z" id="Shape"></path>
                <path d="M2.98925,2.8125 C2.85725,2.8125 2.71325,2.7405 2.71325,2.565 L2.71325,0.294 C2.71325,0.1505 2.85725,0.046 2.98925,0.046 L3.90475,0.046 C5.73175,0.046 5.69175,2.8125 3.94075,2.8125 L2.98925,2.8125 L2.98925,2.8125 Z M3.24125,0.534 L3.24125,2.325 L3.90475,2.325 C4.98425,2.325 5.03225,0.534 3.90475,0.534 L3.24125,0.534 L3.24125,0.534 Z" id="Shape"></path>
                <path d="M6.33975,0.566 L6.33975,1.2015 L7.35925,1.2015 C7.50325,1.2015 7.64725,1.3455 7.64725,1.485 C7.64725,1.617 7.50325,1.725 7.35925,1.725 L6.33975,1.725 L6.33975,2.5645 C6.33975,2.7045 6.24025,2.812 6.10025,2.812 C5.92425,2.812 5.81675,2.7045 5.81675,2.5645 L5.81675,0.2935 C5.81675,0.15 5.92475,0.0455 6.10025,0.0455 L7.50375,0.0455 C7.67975,0.0455 7.78375,0.15 7.78375,0.2935 C7.78375,0.4215 7.67975,0.5655 7.50375,0.5655 L6.33975,0.5655 L6.33975,0.566 Z" id="Shape"></path>
            </g>
            <path d="M11.5,13.5 L2,13.5 L2,14 L11.5,14 C11.775,14 12,13.775 12,13.5 L12,13 C12,13.275 11.775,13.5 11.5,13.5 Z" id="Shape" fill="#CAD1D8"></path>
        </g>
    </g>
</svg>