
<svg width="490px" height="276px" viewBox="0 0 490 276" version="1.1" xmlns="http://www.w3.org/2000/svg" xmlns:xlink="http://www.w3.org/1999/xlink">
    <!-- Generator: Sketch 43.2 (39069) - http://www.bohemiancoding.com/sketch -->
    <desc>Created with Sketch.</desc>
    <defs></defs>
    <g id="Page-1" stroke="none" stroke-width="1" fill="none" fill-rule="evenodd">
        <g id="group-(2)" fill-rule="nonzero">
            <path d="M340.6,102.05 L340.6,139.75 C340.6,146.85 343.4,153.45 348.2,158.45 L348.2,171.25 C348.2,176.75 352.6,181.15 358.1,181.15 C363.6,181.15 368,176.75 368,171.25 L368,153.85 C368,150.55 366.3,147.45 363.6,145.65 C361.6,144.35 360.4,142.15 360.4,139.75 L360.4,102.05 C360.4,88.85 371.2,78.05 384.4,78.05 L392.5,78.05 C405.7,78.05 416.5,88.85 416.5,102.05 L416.5,139.75 C416.5,142.15 415.3,144.35 413.3,145.65 C410.5,147.45 408.9,150.55 408.9,153.85 L408.9,190.15 C408.9,194.55 411.5,198.65 415.4,200.55 C420.1,202.85 444.5,215.15 467.1,233.65 C469,235.25 470.1,237.55 470.1,240.15 L470.1,256.05 L400.7,256.05 C395.2,256.05 390.8,260.45 390.8,265.95 C390.8,271.45 395.2,275.85 400.7,275.85 L480,275.85 C485.5,275.85 489.9,271.45 489.9,265.95 L489.9,240.15 C489.9,231.65 486.2,223.75 479.6,218.35 C459.7,202.05 438.4,190.15 428.7,185.05 L428.7,158.35 C433.5,153.35 436.3,146.75 436.3,139.65 L436.3,101.95 C436.3,77.75 416.6,58.15 392.5,58.15 L384.4,58.15 C360.3,58.25 340.6,77.85 340.6,102.05 Z" id="Shape" fill="#47935E"></path>
            <path d="M9.9,275.85 L90.4,275.85 C95.9,275.85 100.3,271.45 100.3,265.95 C100.3,260.45 95.9,256.05 90.4,256.05 L19.8,256.05 L19.8,240.15 C19.8,237.65 20.9,235.25 22.8,233.65 C45.3,215.15 69.8,202.75 74.5,200.55 C78.5,198.65 81,194.55 81,190.15 L81,153.85 C81,150.55 79.3,147.45 76.6,145.65 C74.6,144.35 73.4,142.15 73.4,139.75 L73.4,102.05 C73.4,88.85 84.2,78.05 97.4,78.05 L105.5,78.05 C118.7,78.05 129.5,88.85 129.5,102.05 L129.5,139.75 C129.5,142.15 128.3,144.35 126.3,145.65 C123.5,147.45 121.9,150.55 121.9,153.85 L121.9,172.05 C121.9,177.55 126.3,181.95 131.8,181.95 C137.3,181.95 141.7,177.55 141.7,172.05 L141.7,158.45 C146.5,153.45 149.3,146.85 149.3,139.75 L149.3,102.05 C149.3,77.85 129.6,58.25 105.5,58.25 L97.4,58.25 C73.2,58.25 53.6,77.95 53.6,102.05 L53.6,139.75 C53.6,146.85 56.4,153.45 61.2,158.45 L61.2,185.15 C51.4,190.25 30.2,202.05 10.3,218.45 C3.8,223.85 0,231.75 0,240.25 L0,265.95 C3.55271368e-15,271.45 4.4,275.85 9.9,275.85 Z" id="Shape" fill="#47935E"></path>
            <path d="M304.4,102.55 L304.4,53.85 C304.4,24.15 280.3,0.05 250.6,0.05 L240.1,0.05 C210.4,0.05 186.3,24.15 186.3,53.85 L186.3,102.55 C186.3,111.35 189.9,119.55 196.1,125.55 L196.1,163.05 C184.4,169.05 155.8,184.65 129.1,206.65 C121.3,213.05 116.9,222.45 116.9,232.55 L116.9,265.95 C116.9,271.45 121.3,275.85 126.8,275.85 L363.8,275.85 C369.3,275.85 373.7,271.45 373.7,265.95 L373.7,232.55 C373.7,222.45 369.3,213.05 361.5,206.65 C334.8,184.75 306.2,169.05 294.5,163.05 L294.5,125.55 C300.8,119.65 304.4,111.35 304.4,102.55 Z M349,221.95 C352.2,224.55 354,228.45 354,232.55 L354,256.05 L136.8,256.05 L136.8,232.55 C136.8,228.45 138.6,224.55 141.8,221.95 C171.2,197.75 203.1,181.65 209.2,178.65 C213.3,176.65 216,172.35 216,167.85 L216,120.85 C216,117.55 214.3,114.45 211.6,112.65 C208.2,110.35 206.2,106.65 206.2,102.65 L206.2,53.95 C206.2,35.15 221.5,19.95 240.2,19.95 L250.7,19.95 C269.5,19.95 284.7,35.25 284.7,53.95 L284.7,102.65 C284.7,106.65 282.7,110.45 279.3,112.65 C276.5,114.45 274.9,117.55 274.9,120.85 L274.9,167.85 C274.9,172.45 277.6,176.65 281.7,178.65 C287.7,181.65 319.6,197.85 349,221.95 Z" id="Shape" fill="#3E6E7C"></path>
        </g>
    </g>
</svg>