
<svg width="498px" height="94px" viewBox="0 0 498 94" version="1.1" xmlns="http://www.w3.org/2000/svg" xmlns:xlink="http://www.w3.org/1999/xlink">
    <!-- Generator: Sketch 43.2 (39069) - http://www.bohemiancoding.com/sketch -->
    <desc>Created with Sketch.</desc>
    <defs>
        <polygon id="path-1" points="74.0762505 0.131 0.5431 0.131 0.5431 61.5078309 74.0762505 61.5078309 74.0762505 0.131"></polygon>
        <polygon id="path-3" points="0 94 497.567 94 497.567 0.131 0 0.131"></polygon>
    </defs>
    <g id="Page-1" stroke="none" stroke-width="1" fill="none" fill-rule="evenodd">
        <g transform="translate(0.000000, -1.000000)">
            <polygon id="Fill-1" fill="#A2CEB0" points="0 93.8111 95.032 93.8111 95.032 3.5641 0 3.5641"></polygon>
            <g id="Group-11" transform="translate(4.000000, 0.869100)">
                <g id="Group-4">
                    <mask id="mask-2" fill="white">
                        <use xlink:href="#path-1"></use>
                    </mask>
                    <g id="Clip-3"></g>
                    <path d="M0.5591,39.8989 C48.2421,85.2909 103.4031,52.9829 55.8571,0.1309 C55.8571,0.1309 39.9951,0.1539 30.7211,0.1469 C98.9021,33.0039 50.5971,89.3499 0.5431,32.7729 L0.5591,39.8989 Z" id="Fill-2" fill="#FEFEFE" mask="url(#mask-2)"></path>
                </g>
                <path d="M56.3857,94 C25.6617,86.224 14.0257,70.337 15.1877,53.908 C15.1877,53.908 18.4257,55.864 20.4287,56.847 C22.7187,57.971 25.6347,59 25.6347,59 C25.6347,68.717 32.3807,79.061 44.2507,84.913 C53.0657,89.26 61.3797,91.654 68.0877,93.051 L56.3857,94 Z" id="Fill-5" fill="#FEFEFE"></path>
                <path d="M27.8398,51.3203 C31.6538,41.5773 43.6878,35.8133 60.4078,45.9843 C60.4078,45.9843 61.1328,45.1753 62.0328,41.9513 C62.5768,40.0023 62.6288,37.7493 62.6288,37.7493 C39.2878,26.1623 25.1748,33.0833 17.8738,45.7973 C18.6878,46.4593 19.3528,46.9813 22.0458,48.4953 C24.1288,49.6643 25.5938,50.4113 27.8398,51.3203" id="Fill-7" fill="#FEFEFE"></path>
                <path d="M69.5112,54.918 C75.9622,63.719 63.9532,78.772 38.9282,66.371 C37.3012,65.564 37.4572,66.558 38.3532,67.102 C67.8302,84.987 86.8312,65.686 74.1682,47.636 C74.1682,47.636 73.4492,49.745 71.9172,51.953 C70.4732,54.032 70.1162,54.219 69.5112,54.918" id="Fill-9" fill="#FEFEFE"></path>
            </g>
            <g id="Group-26" transform="translate(111.000000, 2.869100)" fill="#221F20">
                <path d="M16.2886,31.1572 C17.6116,31.8242 19.8766,32.1882 23.0816,32.2492 C26.1406,32.3102 29.0516,31.2632 31.8166,29.1102 C33.0806,27.9892 34.1396,26.4272 34.9926,24.4252 C35.7576,22.5142 36.1396,20.0732 36.1396,17.1012 C36.0216,7.4582 31.2126,2.6972 21.7146,2.8172 C19.2446,2.8172 17.6996,2.9842 17.0826,3.3172 C16.8466,3.3782 16.6706,3.5602 16.5536,3.8632 C16.3766,4.2272 16.2886,4.8802 16.2886,5.8192 L16.2886,31.1572 Z M16.2886,47.1602 C16.1666,52.0152 16.6816,55.0952 17.8326,56.4002 C18.9786,57.7052 21.6256,58.4182 25.7726,58.5392 L25.7726,60.6242 L0.6696,60.6242 L0.6696,58.5392 C4.2456,58.4192 6.5176,57.7062 7.4846,56.4012 C8.3946,55.0982 8.8196,52.0212 8.7596,47.1702 L8.7596,13.6512 C8.8196,8.7402 8.4236,5.6332 7.5726,4.3292 C7.0446,3.5712 6.2966,3.0402 5.3306,2.7372 C4.3046,2.4942 2.8976,2.3432 1.1096,2.2822 L1.1096,0.1882 L23.8936,0.1882 C30.0226,0.1272 35.0076,1.4282 38.8496,4.0922 C42.5516,6.6962 44.4606,10.9322 44.5766,16.8042 C44.4586,22.4652 42.6266,26.8382 39.0776,29.9252 C35.5286,33.1042 31.5106,34.9652 27.0226,35.5102 C25.4976,35.6312 24.1336,35.6912 22.9316,35.6912 L16.2886,33.9252 L16.2886,47.1602 Z" id="Fill-12"></path>
                <path d="M67.4395,31.3862 L72.6865,31.3862 C76.3595,31.5072 79.3725,30.6722 81.7245,28.8802 C83.6945,27.2402 85.0755,25.3412 85.8695,23.1842 C86.5745,20.9982 86.9275,18.7802 86.9275,16.5322 C86.8685,11.6412 85.4575,8.1022 82.6945,5.9152 C80.0485,3.8502 76.9185,2.8172 73.3035,2.8172 C70.4815,2.8172 68.7915,2.9852 68.2335,3.3182 C67.9975,3.3792 67.8215,3.5612 67.7045,3.8652 C67.5275,4.2302 67.4395,4.8822 67.4395,5.8232 L67.4395,31.3862 Z M67.4395,47.1622 C67.3785,52.0172 67.8345,55.0962 68.8065,56.4002 C69.7755,57.7052 72.0245,58.4182 75.5525,58.5392 L75.5525,60.6242 L51.6385,60.6242 L51.6385,58.5392 C55.3055,58.4192 57.6375,57.7062 58.6345,56.4012 C59.5455,55.0982 59.9705,52.0212 59.9105,47.1702 L59.9105,13.6512 C59.9705,8.7402 59.5455,5.6332 58.6345,4.3292 C58.1655,3.5712 57.3875,3.0402 56.3025,2.7372 C55.2175,2.4942 53.7795,2.3432 51.9905,2.2822 L51.9905,0.1882 L74.8595,0.1882 C80.8115,0.1272 85.5615,1.1892 89.1095,3.3712 C92.9205,5.7662 94.8845,9.7372 95.0015,15.2842 C94.8255,23.0462 90.8705,28.4722 83.1355,31.5642 C85.3015,35.3432 87.9795,39.7702 91.1705,44.8482 C94.0975,49.2922 96.6145,52.6922 98.7225,55.0502 C99.6585,56.1682 100.6395,57.1052 101.6635,57.8612 C102.6295,58.6472 103.8875,59.2662 105.4395,59.7192 L105.2645,61.4412 L103.9915,61.4412 C99.0485,61.1982 95.4075,60.3372 93.0685,58.8522 C91.8685,58.1262 90.8155,57.2332 89.9095,56.1732 C88.9445,55.1142 88.0085,53.9942 87.1015,52.8122 C83.9275,47.7262 80.9005,42.5792 78.0195,37.3722 C76.8145,35.0712 74.9195,33.9512 72.3325,34.0112 L67.4395,34.0112 L67.4395,47.1622 Z" id="Fill-14"></path>
                <path d="M117.1074,13.6558 C117.1674,8.7388 116.7424,5.6268 115.8314,4.3218 C115.3614,3.5628 114.5844,3.0308 113.4994,2.7278 C112.4144,2.4858 110.9764,2.3338 109.1874,2.2728 L109.1874,0.1878 L148.6344,0.1878 C148.8114,2.9148 149.1364,7.4458 149.6094,13.7788 L147.3484,14.0508 C146.4964,9.6128 145.4104,6.7738 144.0904,5.5358 C143.3864,4.7208 142.2854,4.1318 140.7894,3.7698 C139.1464,3.4378 136.9454,3.2718 134.1874,3.2718 L127.3204,3.2718 C126.1474,3.2718 125.3994,3.4078 125.0764,3.6798 C124.7824,3.9828 124.6364,4.8158 124.6364,6.1778 L124.6364,27.3908 L133.6684,27.3908 C137.3624,27.4518 139.7184,27.0398 140.7364,26.1558 C141.6094,25.3638 142.2054,23.2768 142.5254,19.8938 L144.7964,19.8938 L144.7964,38.3288 L142.5254,38.3288 C142.2644,34.9918 141.6394,32.8868 140.6494,32.0138 C140.0974,31.4738 139.2824,31.1418 138.2064,31.0218 C137.0714,30.9018 135.5594,30.8418 133.6684,30.8418 L124.6364,30.8418 L124.6364,47.2508 C124.5754,52.3888 125.3204,55.4548 126.8714,56.4528 C127.7774,56.9968 129.0044,57.2988 130.5544,57.3588 C132.1034,57.4808 133.9304,57.5398 136.0344,57.5398 C138.6654,57.5398 140.9744,57.3588 142.9614,56.9948 C144.8614,56.6318 146.3224,55.9208 147.3464,54.8608 C148.8954,53.1358 150.3264,50.0928 151.6424,45.7318 L153.9224,46.0048 C153.0154,50.9078 151.9634,55.7808 150.7644,60.6238 L108.2634,60.6238 L108.2634,58.4888 C112.2234,58.3688 114.7164,57.6578 115.7434,56.3568 C116.7124,55.0548 117.1674,51.9838 117.1074,47.1398 L117.1074,13.6558 Z" id="Fill-16"></path>
                <path d="M175.7036,0.188 L197.5006,48.123 L218.9696,0.188 L233.8386,0.188 L233.8386,2.272 C230.1036,2.334 227.7526,2.985 226.7816,4.229 C225.8056,5.472 225.4356,8.611 225.6806,13.644 L226.4306,47.167 C226.4866,52.142 226.9736,55.219 227.8836,56.401 C228.7666,57.645 231.1016,58.357 234.8946,58.539 L234.8946,60.624 L211.1526,60.624 L211.1526,58.539 C214.8206,58.357 217.0966,57.645 217.9766,56.401 C218.8346,55.219 219.1426,52.142 218.9006,47.167 L218.5496,9.641 L218.1546,9.641 L196.0986,59.604 L193.8086,59.604 L172.9866,10.915 L172.8106,10.915 L171.9306,36.933 C171.5666,45.424 171.5666,51.004 171.9306,53.673 C172.1646,55.371 172.9126,56.523 174.1726,57.13 C175.4906,57.827 177.5586,58.297 180.3716,58.539 L180.3716,60.624 L159.2716,60.624 L159.2716,58.539 C161.7996,58.297 163.6376,57.827 164.7836,57.129 C165.9306,56.523 166.6196,55.371 166.8556,53.673 C167.4146,50.943 167.9286,45.045 168.3986,35.978 L169.3696,16.418 C169.8836,10.415 169.6486,6.533 168.6636,4.774 C167.6346,3.167 165.0456,2.334 160.8986,2.272 L160.8986,0.188 L175.7036,0.188 Z" id="Fill-18"></path>
                <path d="M259.6851,47.1675 C259.6231,52.0195 260.0781,55.0975 261.0461,56.4015 C262.0131,57.7065 264.2521,58.4185 267.7661,58.5395 L267.7661,60.6245 L244.0601,60.6245 L244.0601,58.5395 C247.6681,58.4185 249.9411,57.7065 250.8801,56.4015 C251.7911,55.0975 252.2161,52.0195 252.1561,47.1675 L252.1561,13.6435 C252.2161,8.7315 251.7911,5.6235 250.8801,4.3195 C250.4111,3.5615 249.6331,3.0305 248.5481,2.7275 C247.4041,2.4845 245.9081,2.3335 244.0601,2.2725 L244.0601,0.1885 L267.7661,0.1885 L267.7661,2.2725 C264.2521,2.3335 262.0131,3.0155 261.0461,4.3195 C260.0781,5.6235 259.6231,8.7315 259.6851,13.6435 L259.6851,47.1675 Z" id="Fill-20"></path>
                <path d="M283.8599,13.6558 C283.9209,8.7388 283.4959,5.6268 282.5849,4.3218 C282.1149,3.5628 281.3379,3.0308 280.2529,2.7278 C279.1679,2.4858 277.7299,2.3338 275.9399,2.2728 L275.9399,0.1878 L315.3869,0.1878 C315.5639,2.9148 315.8889,7.4458 316.3629,13.7788 L314.1009,14.0508 C313.2499,9.6128 312.1639,6.7738 310.8429,5.5358 C310.1389,4.7208 309.0389,4.1318 307.5429,3.7698 C305.8989,3.4378 303.6989,3.2718 300.9399,3.2718 L294.0739,3.2718 C292.8999,3.2718 292.1519,3.4078 291.8289,3.6798 C291.5359,3.9828 291.3889,4.8158 291.3889,6.1778 L291.3889,27.3908 L300.4219,27.3908 C304.1159,27.4518 306.4719,27.0398 307.4899,26.1558 C308.3629,25.3638 308.9589,23.2768 309.2789,19.8938 L311.5489,19.8938 L311.5489,38.3288 L309.2789,38.3288 C309.0169,34.9918 308.3909,32.8868 307.4029,32.0138 C306.8499,31.4738 306.0359,31.1418 304.9599,31.0218 C303.8249,30.9018 302.3119,30.8418 300.4219,30.8418 L291.3889,30.8418 L291.3889,47.2508 C291.3279,52.3888 292.0739,55.4548 293.6249,56.4528 C294.5309,56.9968 295.7579,57.2988 297.3069,57.3588 C298.8559,57.4808 300.6829,57.5398 302.7879,57.5398 C305.4189,57.5398 307.7269,57.3588 309.7139,56.9948 C311.6139,56.6318 313.0759,55.9208 314.0979,54.8608 C315.6469,53.1358 317.0799,50.0928 318.3949,45.7318 L320.6739,46.0048 C319.7679,50.9078 318.7159,55.7808 317.5169,60.6238 L275.0169,60.6238 L275.0169,58.4888 C278.9759,58.3688 281.4689,57.6578 282.4969,56.3568 C283.4649,55.0548 283.9209,51.9838 283.8599,47.1398 L283.8599,13.6558 Z" id="Fill-22"></path>
                <path d="M342.9253,31.3862 L348.1713,31.3862 C351.8453,31.5072 354.8593,30.6722 357.2103,28.8802 C359.1803,27.2402 360.5613,25.3412 361.3553,23.1842 C362.0603,20.9982 362.4123,18.7802 362.4123,16.5322 C362.3543,11.6412 360.9433,8.1022 358.1803,5.9152 C355.5343,3.8502 352.4043,2.8172 348.7883,2.8172 C345.9663,2.8172 344.2773,2.9852 343.7193,3.3182 C343.4843,3.3792 343.3073,3.5612 343.1903,3.8652 C343.0133,4.2302 342.9253,4.8822 342.9253,5.8232 L342.9253,31.3862 Z M342.9253,47.1622 C342.8633,52.0172 343.3213,55.0962 344.2923,56.4002 C345.2613,57.7052 347.5103,58.4182 351.0373,58.5392 L351.0373,60.6242 L327.1243,60.6242 L327.1243,58.5392 C330.7913,58.4192 333.1233,57.7062 334.1203,56.4012 C335.0313,55.0982 335.4563,52.0212 335.3963,47.1702 L335.3963,13.6512 C335.4563,8.7402 335.0313,5.6332 334.1203,4.3292 C333.6513,3.5712 332.8733,3.0402 331.7883,2.7372 C330.7033,2.4942 329.2663,2.3432 327.4763,2.2822 L327.4763,0.1882 L350.3453,0.1882 C356.2973,0.1272 361.0473,1.1892 364.5953,3.3712 C368.4063,5.7662 370.3703,9.7372 370.4873,15.2842 C370.3123,23.0462 366.3563,28.4722 358.6213,31.5642 C360.7863,35.3432 363.4653,39.7702 366.6563,44.8482 C369.5823,49.2922 372.1003,52.6922 374.2073,55.0502 C375.1443,56.1682 376.1243,57.1052 377.1503,57.8612 C378.1143,58.6472 379.3733,59.2662 380.9253,59.7192 L380.7503,61.4412 L379.4773,61.4412 C374.5343,61.1982 370.8933,60.3372 368.5543,58.8522 C367.3543,58.1262 366.3013,57.2332 365.3953,56.1732 C364.4303,55.1142 363.4943,53.9942 362.5873,52.8122 C359.4133,47.7262 356.3863,42.5792 353.5053,37.3722 C352.3013,35.0712 350.4043,33.9512 347.8193,34.0112 L342.9253,34.0112 L342.9253,47.1622 Z" id="Fill-24"></path>
            </g>
            <polygon id="Fill-27" fill="#888E95" points="111.7344 76.8261 123.7624 76.8261 123.7624 79.9921 115.8984 79.9921 115.8984 83.0661 123.7624 83.0661 123.7624 86.1741 115.8984 86.1741 115.8984 90.6451 123.7624 90.6451 123.7624 93.8231 111.7344 93.8231"></polygon>
            <polygon id="Fill-28" fill="#888E95" points="127.9941 76.8261 132.0171 76.8261 141.4451 88.0121 141.4451 76.8261 145.6401 76.8261 145.6401 93.8231 141.6051 93.8231 132.1881 82.6731 132.1881 93.8231 127.9941 93.8231"></polygon>
            <g id="Group-54" transform="translate(0.000000, 0.869100)">
                <path d="M154.6987,79.0771 L154.6987,89.8001 L156.6457,89.8001 C158.5637,89.8001 159.9537,89.6311 160.8177,89.2911 C161.6817,88.9511 162.3877,88.3811 162.9377,87.5791 C163.4867,86.7771 163.7617,85.7901 163.7617,84.6171 C163.7617,82.8131 163.1067,81.4141 161.7987,80.4191 C160.6207,79.5241 158.7277,79.0771 156.1217,79.0771 L154.6987,79.0771 Z M150.5347,75.9571 L155.5037,75.9571 C158.7057,75.9571 161.0857,76.2641 162.6417,76.8761 C164.1987,77.4881 165.4807,78.4841 166.4887,79.8631 C167.4967,81.2421 168.0007,82.8511 168.0007,84.6921 C168.0007,86.0021 167.7187,87.2051 167.1547,88.3031 C166.5907,89.4001 165.8127,90.3121 164.8197,91.0361 C163.8267,91.7601 162.7517,92.2611 161.5947,92.5381 C160.4377,92.8151 158.4317,92.9541 155.5777,92.9541 L150.5347,92.9541 L150.5347,75.9571 Z" id="Fill-29" fill="#888E95"></path>
                <path d="M181.7451,78.6953 C179.7051,78.6953 177.9911,79.2423 176.6011,80.3363 C175.2121,81.4293 174.5171,82.8203 174.5171,84.5083 C174.5171,86.3863 175.3921,87.8743 177.1411,88.9673 C178.5011,89.8223 180.0601,90.2503 181.8201,90.2503 C183.8091,90.2503 185.5031,89.6953 186.9031,88.5863 C188.3031,87.4763 189.0021,86.1093 189.0021,84.4843 C189.0021,82.8673 188.2971,81.4983 186.8881,80.3773 C185.4781,79.2563 183.7641,78.6953 181.7451,78.6953 M181.7901,75.5293 C184.9081,75.5293 187.5881,76.4003 189.8311,78.1403 C192.0751,79.8833 193.1971,82.0043 193.1971,84.5083 C193.1971,86.9883 192.0901,89.0883 189.8761,90.8043 C187.6631,92.5233 184.9771,93.3823 181.8201,93.3823 C178.5121,93.3823 175.7641,92.5003 173.5761,90.7363 C171.3871,88.9713 170.2931,86.8773 170.2931,84.4493 C170.2931,82.8243 170.8031,81.3303 171.8221,79.9663 C172.8411,78.6033 174.2431,77.5233 176.0261,76.7253 C177.8101,75.9273 179.7311,75.5293 181.7901,75.5293" id="Fill-31" fill="#888E95"></path>
                <path d="M200.5635,79.0771 L200.5635,89.8001 L202.5105,89.8001 C204.4285,89.8001 205.8185,89.6311 206.6825,89.2911 C207.5465,88.9511 208.2525,88.3811 208.8025,87.5791 C209.3515,86.7771 209.6265,85.7901 209.6265,84.6171 C209.6265,82.8131 208.9715,81.4141 207.6635,80.4191 C206.4855,79.5241 204.5925,79.0771 201.9865,79.0771 L200.5635,79.0771 Z M196.3995,75.9571 L201.3685,75.9571 C204.5705,75.9571 206.9505,76.2641 208.5065,76.8761 C210.0635,77.4881 211.3455,78.4841 212.3535,79.8631 C213.3615,81.2421 213.8655,82.8511 213.8655,84.6921 C213.8655,86.0021 213.5835,87.2051 213.0195,88.3031 C212.4555,89.4001 211.6775,90.3121 210.6845,91.0361 C209.6915,91.7601 208.6165,92.2611 207.4595,92.5381 C206.3025,92.8151 204.2965,92.9541 201.4425,92.9541 L196.3995,92.9541 L196.3995,75.9571 Z" id="Fill-33" fill="#888E95"></path>
                <path d="M227.9165,78.6953 C225.8765,78.6953 224.1625,79.2423 222.7725,80.3363 C221.3835,81.4293 220.6885,82.8203 220.6885,84.5083 C220.6885,86.3863 221.5635,87.8743 223.3125,88.9673 C224.6725,89.8223 226.2315,90.2503 227.9915,90.2503 C229.9805,90.2503 231.6745,89.6953 233.0745,88.5863 C234.4745,87.4763 235.1735,86.1093 235.1735,84.4843 C235.1735,82.8673 234.4685,81.4983 233.0595,80.3773 C231.6495,79.2563 229.9355,78.6953 227.9165,78.6953 M227.9615,75.5293 C231.0795,75.5293 233.7595,76.4003 236.0025,78.1403 C238.2465,79.8833 239.3685,82.0043 239.3685,84.5083 C239.3685,86.9883 238.2615,89.0883 236.0475,90.8043 C233.8345,92.5233 231.1485,93.3823 227.9915,93.3823 C224.6835,93.3823 221.9355,92.5003 219.7475,90.7363 C217.5585,88.9713 216.4645,86.8773 216.4645,84.4493 C216.4645,82.8243 216.9745,81.3303 217.9935,79.9663 C219.0125,78.6033 220.4145,77.5233 222.1975,76.7253 C223.9815,75.9273 225.9025,75.5293 227.9615,75.5293" id="Fill-35" fill="#888E95"></path>
                <polygon id="Fill-37" fill="#888E95" points="242.5708 75.957 246.5938 75.957 256.0218 87.143 256.0218 75.957 260.2168 75.957 260.2168 92.954 256.1818 92.954 246.7648 81.804 246.7648 92.954 242.5708 92.954"></polygon>
                <polygon id="Fill-39" fill="#888E95" points="264.3052 75.957 276.4832 75.957 276.4832 79.146 272.4682 79.146 272.4682 92.954 268.2142 92.954 268.2142 79.146 264.3052 79.146"></polygon>
                <mask id="mask-4" fill="white">
                    <use xlink:href="#path-3"></use>
                </mask>
                <g id="Clip-42"></g>
                <polygon id="Fill-41" fill="#888E95" mask="url(#mask-4)" points="279.827 92.954 283.991 92.954 283.991 75.957 279.827 75.957"></polygon>
                <path d="M308.9614,78.9443 L306.0274,81.1013 C304.0324,79.4743 301.7874,78.6613 299.2934,78.6613 C297.1884,78.6613 295.4144,79.2163 293.9734,80.3263 C292.5304,81.4373 291.8104,82.8053 291.8104,84.4323 C291.8104,85.5663 292.1294,86.5723 292.7684,87.4513 C293.4064,88.3303 294.3094,89.0203 295.4774,89.5213 C296.6444,90.0233 297.9414,90.2733 299.3684,90.2733 C300.5854,90.2733 301.6974,90.0973 302.7054,89.7473 C303.7134,89.3963 304.8204,88.7573 306.0274,87.8333 L308.8714,90.1213 C307.2434,91.3473 305.7054,92.1973 304.2584,92.6713 C302.8104,93.1443 301.1574,93.3823 299.3004,93.3823 C295.8744,93.3823 293.0704,92.5443 290.8894,90.8693 C288.7064,89.1933 287.6154,87.0463 287.6154,84.4263 C287.6154,82.7323 288.1124,81.2263 289.1064,79.9093 C290.1004,78.5913 291.5234,77.5333 293.3754,76.7313 C295.2284,75.9303 297.2234,75.5293 299.3594,75.5293 C301.1774,75.5293 302.9274,75.8263 304.6094,76.4183 C306.2924,77.0093 307.7424,77.8523 308.9614,78.9443" id="Fill-43" fill="#888E95" mask="url(#mask-4)"></path>
                <path d="M330.0894,80.4629 L327.1334,86.2989 L333.0284,86.2989 L330.0894,80.4629 Z M327.9374,75.9569 L332.1904,75.9569 L340.6654,92.9539 L336.3064,92.9539 L334.5824,89.4529 L325.5914,89.4529 L323.7984,92.9539 L319.4394,92.9539 L327.9374,75.9569 Z" id="Fill-44" fill="#888E95" mask="url(#mask-4)"></path>
                <path d="M355.4731,78.2676 L352.3671,80.3826 C351.2761,79.2116 350.1651,78.6266 349.0351,78.6266 C348.4851,78.6266 348.0351,78.7406 347.6841,78.9666 C347.3341,79.1956 347.1591,79.4516 347.1591,79.7366 C347.1591,80.0216 347.2841,80.2906 347.5351,80.5446 C347.8741,80.8836 348.9001,81.6116 350.6101,82.7286 C352.2101,83.7606 353.1811,84.4126 353.5211,84.6816 C354.3711,85.3436 354.9741,85.9766 355.3291,86.5816 C355.6851,87.1866 355.8621,87.8476 355.8621,88.5636 C355.8621,89.9566 355.2381,91.1096 353.9881,92.0176 C352.7381,92.9276 351.1091,93.3816 349.0991,93.3816 C347.5301,93.3816 346.1621,93.0846 344.9971,92.4926 C343.8331,91.8986 342.8361,90.9666 342.0061,89.6956 L345.5321,88.0546 C346.5921,89.5566 347.8121,90.3086 349.1931,90.3086 C349.9121,90.3086 350.5181,90.1466 351.0071,89.8226 C351.4971,89.4996 351.7431,89.1256 351.7431,88.7026 C351.7431,88.3166 351.5581,87.9316 351.1881,87.5466 C350.8181,87.1626 350.0021,86.5726 348.7421,85.7796 C346.3411,84.2696 344.7901,83.1036 344.0901,82.2836 C343.3901,81.4626 343.0391,80.6446 343.0391,79.8286 C343.0391,78.6496 343.6221,77.6386 344.7861,76.7946 C345.9521,75.9516 347.3891,75.5296 349.0991,75.5296 C350.1991,75.5296 351.2451,75.7266 352.2411,76.1196 C353.2361,76.5116 354.3131,77.2286 355.4731,78.2676" id="Fill-45" fill="#888E95" mask="url(#mask-4)"></path>
                <path d="M371.4263,78.2676 L368.3203,80.3826 C367.2293,79.2116 366.1183,78.6266 364.9883,78.6266 C364.4383,78.6266 363.9883,78.7406 363.6373,78.9666 C363.2873,79.1956 363.1123,79.4516 363.1123,79.7366 C363.1123,80.0216 363.2373,80.2906 363.4883,80.5446 C363.8273,80.8836 364.8533,81.6116 366.5633,82.7286 C368.1633,83.7606 369.1343,84.4126 369.4743,84.6816 C370.3243,85.3436 370.9273,85.9766 371.2823,86.5816 C371.6383,87.1866 371.8153,87.8476 371.8153,88.5636 C371.8153,89.9566 371.1913,91.1096 369.9413,92.0176 C368.6913,92.9276 367.0623,93.3816 365.0523,93.3816 C363.4833,93.3816 362.1153,93.0846 360.9503,92.4926 C359.7863,91.8986 358.7893,90.9666 357.9593,89.6956 L361.4853,88.0546 C362.5453,89.5566 363.7653,90.3086 365.1463,90.3086 C365.8653,90.3086 366.4713,90.1466 366.9603,89.8226 C367.4503,89.4996 367.6963,89.1256 367.6963,88.7026 C367.6963,88.3166 367.5113,87.9316 367.1413,87.5466 C366.7713,87.1626 365.9553,86.5726 364.6953,85.7796 C362.2943,84.2696 360.7433,83.1036 360.0433,82.2836 C359.3433,81.4626 358.9923,80.6446 358.9923,79.8286 C358.9923,78.6496 359.5753,77.6386 360.7393,76.7946 C361.9053,75.9516 363.3423,75.5296 365.0523,75.5296 C366.1523,75.5296 367.1983,75.7266 368.1943,76.1196 C369.1893,76.5116 370.2663,77.2286 371.4263,78.2676" id="Fill-46" fill="#888E95" mask="url(#mask-4)"></path>
                <path d="M386.1733,78.6953 C384.1333,78.6953 382.4193,79.2423 381.0293,80.3363 C379.6403,81.4293 378.9453,82.8203 378.9453,84.5083 C378.9453,86.3863 379.8193,87.8743 381.5693,88.9673 C382.9293,89.8223 384.4883,90.2503 386.2483,90.2503 C388.2363,90.2503 389.9313,89.6953 391.3313,88.5863 C392.7313,87.4763 393.4313,86.1093 393.4313,84.4843 C393.4313,82.8673 392.7263,81.4983 391.3163,80.3773 C389.9063,79.2563 388.1923,78.6953 386.1733,78.6953 M386.2183,75.5293 C389.3353,75.5293 392.0163,76.4003 394.2593,78.1403 C396.5033,79.8833 397.6243,82.0043 397.6243,84.5083 C397.6243,86.9883 396.5183,89.0883 394.3043,90.8043 C392.0913,92.5233 389.4053,93.3823 386.2483,93.3823 C382.9403,93.3823 380.1933,92.5003 378.0043,90.7363 C375.8163,88.9713 374.7213,86.8773 374.7213,84.4493 C374.7213,82.8243 375.2313,81.3303 376.2503,79.9663 C377.2703,78.6033 378.6713,77.5233 380.4543,76.7253 C382.2373,75.9273 384.1593,75.5293 386.2183,75.5293" id="Fill-47" fill="#888E95" mask="url(#mask-4)"></path>
                <path d="M421.8315,78.9443 L418.8975,81.1013 C416.9025,79.4743 414.6575,78.6613 412.1635,78.6613 C410.0585,78.6613 408.2845,79.2163 406.8435,80.3263 C405.4005,81.4373 404.6805,82.8053 404.6805,84.4323 C404.6805,85.5663 404.9995,86.5723 405.6385,87.4513 C406.2765,88.3303 407.1795,89.0203 408.3475,89.5213 C409.5145,90.0233 410.8115,90.2733 412.2385,90.2733 C413.4555,90.2733 414.5675,90.0973 415.5755,89.7473 C416.5835,89.3963 417.6905,88.7573 418.8975,87.8333 L421.7415,90.1213 C420.1135,91.3473 418.5755,92.1973 417.1285,92.6713 C415.6805,93.1443 414.0275,93.3823 412.1705,93.3823 C408.7445,93.3823 405.9405,92.5443 403.7595,90.8693 C401.5765,89.1933 400.4855,87.0463 400.4855,84.4263 C400.4855,82.7323 400.9825,81.2263 401.9765,79.9093 C402.9705,78.5913 404.3935,77.5333 406.2455,76.7313 C408.0985,75.9303 410.0935,75.5293 412.2295,75.5293 C414.0475,75.5293 415.7975,75.8263 417.4795,76.4183 C419.1625,77.0093 420.6125,77.8523 421.8315,78.9443" id="Fill-48" fill="#888E95" mask="url(#mask-4)"></path>
                <polygon id="Fill-49" fill="#888E95" mask="url(#mask-4)" points="425.202 92.954 429.366 92.954 429.366 75.957 425.202 75.957"></polygon>
                <path d="M442.9595,80.4629 L440.0035,86.2989 L445.8985,86.2989 L442.9595,80.4629 Z M440.8075,75.9569 L445.0605,75.9569 L453.5355,92.9539 L449.1765,92.9539 L447.4525,89.4529 L438.4615,89.4529 L436.6685,92.9539 L432.3095,92.9539 L440.8075,75.9569 Z" id="Fill-50" fill="#888E95" mask="url(#mask-4)"></path>
                <polygon id="Fill-51" fill="#888E95" mask="url(#mask-4)" points="454.6069 75.957 466.7849 75.957 466.7849 79.146 462.7709 79.146 462.7709 92.954 458.5159 92.954 458.5159 79.146 454.6069 79.146"></polygon>
                <polygon id="Fill-52" fill="#888E95" mask="url(#mask-4)" points="469.6753 75.957 481.7033 75.957 481.7033 79.123 473.8403 79.123 473.8403 82.197 481.7033 82.197 481.7033 85.305 473.8403 85.305 473.8403 89.776 481.7033 89.776 481.7033 92.954 469.6753 92.954"></polygon>
                <path d="M497.1782,78.2676 L494.0722,80.3826 C492.9812,79.2116 491.8702,78.6266 490.7402,78.6266 C490.1902,78.6266 489.7402,78.7406 489.3892,78.9666 C489.0392,79.1956 488.8642,79.4516 488.8642,79.7366 C488.8642,80.0216 488.9892,80.2906 489.2402,80.5446 C489.5792,80.8836 490.6052,81.6116 492.3152,82.7286 C493.9152,83.7606 494.8862,84.4126 495.2262,84.6816 C496.0762,85.3436 496.6792,85.9766 497.0342,86.5816 C497.3902,87.1866 497.5672,87.8476 497.5672,88.5636 C497.5672,89.9566 496.9432,91.1096 495.6932,92.0176 C494.4432,92.9276 492.8142,93.3816 490.8042,93.3816 C489.2352,93.3816 487.8672,93.0846 486.7022,92.4926 C485.5382,91.8986 484.5412,90.9666 483.7112,89.6956 L487.2372,88.0546 C488.2972,89.5566 489.5172,90.3086 490.8982,90.3086 C491.6172,90.3086 492.2232,90.1466 492.7122,89.8226 C493.2022,89.4996 493.4482,89.1256 493.4482,88.7026 C493.4482,88.3166 493.2632,87.9316 492.8932,87.5466 C492.5232,87.1626 491.7072,86.5726 490.4472,85.7796 C488.0462,84.2696 486.4952,83.1036 485.7952,82.2836 C485.0952,81.4626 484.7442,80.6446 484.7442,79.8286 C484.7442,78.6496 485.3272,77.6386 486.4912,76.7946 C487.6572,75.9516 489.0942,75.5296 490.8042,75.5296 C491.9042,75.5296 492.9502,75.7266 493.9462,76.1196 C494.9412,76.5116 496.0182,77.2286 497.1782,78.2676" id="Fill-53" fill="#888E95" mask="url(#mask-4)"></path>
            </g>
        </g>
    </g>
</svg>