<?xml version="1.0" encoding="utf-8"?>
<!-- Generator: Adobe Illustrator 15.0.0, SVG Export Plug-In . SVG Version: 6.00 Build 0)  -->
<!DOCTYPE svg PUBLIC "-//W3C//DTD SVG 1.1//EN" "http://www.w3.org/Graphics/SVG/1.1/DTD/svg11.dtd">
<svg version="1.1" xmlns="http://www.w3.org/2000/svg" xmlns:xlink="http://www.w3.org/1999/xlink" x="0px" y="0px"
	 width="499.067px" height="196.075px" viewBox="0 0 499.067 196.075" enable-background="new 0 0 499.067 196.075"
	 xml:space="preserve">
<g id="Layer_7">
	<rect x="1.5" y="33.994" fill="none" stroke="#FFFFFF" stroke-width="3" stroke-miterlimit="10" width="95.032" height="90.247"/>
</g>
<g id="Letterforms">
	<path fill="#FFFFFF" d="M6.059,71.198C53.742,116.59,108.903,84.283,61.357,31.43c0,0-15.863,0.023-25.137,0.016
		c68.182,32.858,19.876,89.203-30.177,32.626L6.059,71.198z"/>
	<path fill="#FFFFFF" d="M61.886,125.299c-30.724-7.776-42.36-23.663-41.198-40.092c0,0,3.237,1.956,5.241,2.938
		c2.29,1.124,5.206,2.153,5.206,2.153c0,9.717,6.746,20.061,18.616,25.913c8.815,4.347,17.129,6.741,23.837,8.138L61.886,125.299z"
		/>
	<path fill="#FFFFFF" d="M33.34,82.62c3.814-9.743,15.848-15.507,32.568-5.336c0,0,0.726-0.809,1.625-4.033
		c0.544-1.949,0.596-4.202,0.596-4.202c-23.341-11.587-37.454-4.666-44.755,8.048c0.814,0.662,1.479,1.184,4.172,2.698
		C29.629,80.964,31.094,81.711,33.34,82.62z"/>
	<path fill="#FFFFFF" d="M75.011,86.217c6.451,8.801-5.558,23.854-30.583,11.453c-1.627-0.807-1.471,0.187-0.575,0.73
		c29.478,17.886,48.478-1.416,35.815-19.466c0,0-0.719,2.109-2.251,4.317C75.973,85.332,75.616,85.518,75.011,86.217z"/>
</g>
<g id="Box">
</g>
<g id="Premier">
	<g>
		<path fill="#FFFFFF" d="M128.789,80.46c-0.122,4.855,0.393,7.935,1.544,9.24c1.146,1.305,3.793,2.018,7.94,2.139v2.085h-25.104
			v-2.085c3.576-0.12,5.848-0.833,6.815-2.138c0.91-1.303,1.335-4.38,1.275-9.231V46.951c0.06-4.911-0.336-8.018-1.187-9.322
			c-0.528-0.758-1.276-1.289-2.243-1.592c-1.026-0.242-2.433-0.394-4.221-0.455v-2.094h22.785
			c6.128-0.061,11.114,1.241,14.956,3.904c3.702,2.604,5.611,6.84,5.727,12.712c-0.118,5.661-1.95,10.034-5.499,13.121
			c-3.549,3.179-7.567,5.04-12.055,5.584c-1.525,0.121-2.889,0.182-4.092,0.182l-6.643-1.767V80.46z M128.789,64.457
			c1.323,0.667,3.588,1.031,6.793,1.092c3.059,0.061,5.97-0.985,8.735-3.139c1.264-1.122,2.323-2.683,3.175-4.686
			c0.765-1.911,1.147-4.352,1.147-7.324c-0.118-9.643-4.927-14.404-14.425-14.284c-2.47,0-4.015,0.167-4.632,0.5
			c-0.236,0.061-0.412,0.243-0.529,0.545c-0.177,0.365-0.265,1.017-0.265,1.956V64.457z"/>
		<path fill="#FFFFFF" d="M179.939,80.462c-0.061,4.855,0.395,7.934,1.367,9.238c0.969,1.305,3.218,2.018,6.746,2.139v2.085h-23.914
			v-2.085c3.667-0.12,5.999-0.833,6.996-2.138c0.911-1.303,1.336-4.38,1.276-9.231V46.951c0.06-4.911-0.365-8.018-1.276-9.322
			c-0.47-0.758-1.247-1.289-2.332-1.592c-1.085-0.242-2.523-0.394-4.312-0.455v-2.094h22.869c5.952-0.061,10.702,1.001,14.25,3.183
			c3.812,2.396,5.775,6.366,5.892,11.914c-0.175,7.761-4.13,13.188-11.865,16.28c2.166,3.778,4.844,8.206,8.035,13.284
			c2.927,4.443,5.444,7.844,7.552,10.201c0.937,1.118,1.917,2.056,2.941,2.812c0.966,0.786,2.224,1.405,3.776,1.858l-0.175,1.722
			h-1.273c-4.943-0.243-8.583-1.104-10.923-2.589c-1.2-0.727-2.252-1.619-3.159-2.68c-0.965-1.059-1.901-2.179-2.808-3.36
			c-3.174-5.086-6.201-10.233-9.082-15.44c-1.205-2.301-3.1-3.421-5.687-3.361h-4.893V80.462z M179.939,64.686h5.247
			c3.673,0.121,6.687-0.714,9.039-2.506c1.97-1.64,3.351-3.539,4.145-5.696c0.706-2.187,1.058-4.404,1.058-6.652
			c-0.059-4.891-1.47-8.43-4.233-10.617c-2.646-2.065-5.776-3.098-9.391-3.098c-2.822,0-4.512,0.167-5.07,0.5
			c-0.236,0.061-0.412,0.244-0.529,0.547c-0.177,0.365-0.265,1.017-0.265,1.958V64.686z"/>
		<path fill="#FFFFFF" d="M229.607,46.955c0.06-4.917-0.365-8.029-1.276-9.334c-0.47-0.758-1.247-1.29-2.332-1.593
			c-1.085-0.243-2.523-0.395-4.312-0.456v-2.084h39.447c0.177,2.727,0.502,7.258,0.976,13.59l-2.262,0.272
			c-0.852-4.438-1.938-7.277-3.258-8.515c-0.704-0.815-1.805-1.404-3.301-1.767c-1.643-0.332-3.844-0.498-6.603-0.498h-6.866
			c-1.173,0-1.922,0.136-2.245,0.408c-0.294,0.303-0.44,1.136-0.44,2.498V60.69h9.032c3.694,0.061,6.05-0.351,7.068-1.235
			c0.873-0.792,1.469-2.879,1.789-6.262h2.271v18.435h-2.271c-0.262-3.337-0.887-5.442-1.876-6.315
			c-0.553-0.541-1.367-0.872-2.444-0.993c-1.134-0.12-2.647-0.18-4.538-0.18h-9.032V80.55c-0.061,5.138,0.685,8.205,2.235,9.203
			c0.906,0.544,2.133,0.846,3.683,0.905c1.549,0.122,3.375,0.182,5.48,0.182c2.63,0,4.939-0.182,6.927-0.545
			c1.9-0.363,3.361-1.074,4.385-2.135c1.549-1.725,2.98-4.768,4.296-9.128l2.28,0.272c-0.907,4.904-1.959,9.777-3.158,14.62h-42.5
			v-2.135c3.959-0.12,6.453-0.831,7.48-2.133c0.969-1.302,1.424-4.373,1.364-9.216V46.955z"/>
		<path fill="#FFFFFF" d="M288.204,33.487L310,81.422l21.469-47.935h14.869v2.084c-3.734,0.061-6.086,0.713-7.057,1.956
			c-0.977,1.244-1.346,4.382-1.102,9.415l0.75,33.524c0.057,4.974,0.543,8.051,1.453,9.234c0.883,1.243,3.219,1.956,7.012,2.138
			v2.085h-23.742v-2.085c3.668-0.182,5.943-0.895,6.824-2.138c0.857-1.183,1.166-4.26,0.924-9.234l-0.352-37.526h-0.395
			l-22.057,49.962h-2.289l-20.822-48.688h-0.176l-0.881,26.018c-0.363,8.491-0.363,14.071,0,16.74
			c0.234,1.698,0.982,2.851,2.242,3.457c1.318,0.697,3.387,1.167,6.199,1.409v2.085h-21.1v-2.085
			c2.527-0.242,4.365-0.712,5.512-1.41c1.146-0.605,1.836-1.758,2.072-3.456c0.559-2.729,1.072-8.628,1.543-17.695l0.971-19.56
			c0.514-6.003,0.279-9.885-0.706-11.645c-1.029-1.607-3.618-2.44-7.765-2.501v-2.084H288.204z"/>
		<path fill="#FFFFFF" d="M372.185,80.467c-0.062,4.852,0.393,7.93,1.361,9.234c0.967,1.305,3.206,2.018,6.72,2.138v2.085H356.56
			v-2.085c3.608-0.12,5.881-0.833,6.82-2.138c0.911-1.304,1.336-4.382,1.275-9.234V46.943c0.061-4.912-0.364-8.021-1.275-9.324
			c-0.47-0.758-1.247-1.289-2.332-1.592c-1.145-0.243-2.641-0.394-4.488-0.455v-2.084h23.706v2.084
			c-3.514,0.061-5.753,0.743-6.72,2.047c-0.969,1.304-1.423,4.412-1.361,9.324V80.467z"/>
		<path fill="#FFFFFF" d="M396.36,46.955c0.061-4.917-0.364-8.029-1.275-9.334c-0.47-0.758-1.247-1.29-2.332-1.593
			c-1.085-0.243-2.522-0.395-4.312-0.456v-2.084h39.447c0.177,2.727,0.502,7.258,0.976,13.59l-2.262,0.272
			c-0.852-4.438-1.938-7.277-3.258-8.515c-0.704-0.815-1.805-1.404-3.301-1.767c-1.644-0.332-3.844-0.498-6.603-0.498h-6.866
			c-1.174,0-1.922,0.136-2.245,0.408c-0.293,0.303-0.439,1.136-0.439,2.498V60.69h9.032c3.694,0.061,6.051-0.351,7.068-1.235
			c0.873-0.792,1.469-2.879,1.789-6.262h2.271v18.435h-2.271c-0.262-3.337-0.888-5.442-1.876-6.315
			c-0.553-0.541-1.367-0.872-2.443-0.993c-1.135-0.12-2.647-0.18-4.538-0.18h-9.032V80.55c-0.062,5.138,0.685,8.205,2.235,9.203
			c0.906,0.544,2.134,0.846,3.683,0.905c1.549,0.122,3.376,0.182,5.48,0.182c2.631,0,4.939-0.182,6.927-0.545
			c1.899-0.363,3.361-1.074,4.384-2.135c1.549-1.725,2.981-4.768,4.297-9.128l2.279,0.272c-0.906,4.904-1.958,9.777-3.157,14.62
			h-42.5v-2.135c3.959-0.12,6.452-0.831,7.479-2.133c0.969-1.302,1.424-4.373,1.363-9.216V46.955z"/>
		<path fill="#FFFFFF" d="M455.425,80.462c-0.062,4.855,0.396,7.934,1.367,9.238c0.969,1.305,3.218,2.018,6.745,2.139v2.085h-23.913
			v-2.085c3.667-0.12,5.999-0.833,6.996-2.138c0.911-1.303,1.336-4.38,1.275-9.231V46.951c0.061-4.911-0.364-8.018-1.275-9.322
			c-0.47-0.758-1.247-1.289-2.332-1.592c-1.085-0.242-2.522-0.394-4.312-0.455v-2.094h22.869c5.952-0.061,10.702,1.001,14.25,3.183
			c3.812,2.396,5.775,6.366,5.892,11.914c-0.175,7.761-4.131,13.188-11.865,16.28c2.165,3.778,4.844,8.206,8.035,13.284
			c2.926,4.443,5.443,7.844,7.551,10.201c0.937,1.118,1.917,2.056,2.942,2.812c0.965,0.786,2.224,1.405,3.775,1.858l-0.175,1.722
			h-1.273c-4.942-0.243-8.584-1.104-10.923-2.589c-1.2-0.727-2.253-1.619-3.159-2.68c-0.965-1.059-1.9-2.179-2.808-3.36
			c-3.174-5.086-6.201-10.233-9.082-15.44c-1.204-2.301-3.101-3.421-5.687-3.361h-4.894V80.462z M455.425,64.686h5.246
			c3.674,0.121,6.688-0.714,9.039-2.506c1.97-1.64,3.351-3.539,4.145-5.696c0.705-2.187,1.058-4.404,1.058-6.652
			c-0.059-4.891-1.47-8.43-4.232-10.617c-2.646-2.065-5.775-3.098-9.392-3.098c-2.822,0-4.512,0.167-5.069,0.5
			c-0.235,0.061-0.412,0.244-0.529,0.547c-0.177,0.365-0.265,1.017-0.265,1.958V64.686z"/>
	</g>
</g>
<g id="Endodontics">
	<g>
		<path fill="#FFFFFF" d="M113.234,107.256h12.028v3.166h-7.864v3.074h7.864v3.107h-7.864v4.472h7.864v3.178h-12.028V107.256z"/>
		<path fill="#FFFFFF" d="M129.494,107.256h4.023l9.428,11.186v-11.186h4.194v16.997h-4.035l-9.417-11.15v11.15h-4.194V107.256z"/>
		<path fill="#FFFFFF" d="M152.035,107.256h4.969c3.203,0,5.583,0.307,7.139,0.919c1.557,0.612,2.839,1.608,3.847,2.987
			s1.512,2.988,1.512,4.829c0,1.31-0.282,2.513-0.846,3.61c-0.564,1.098-1.342,2.01-2.335,2.733
			c-0.993,0.724-2.068,1.225-3.225,1.502s-3.163,0.416-6.017,0.416h-5.043V107.256z M156.199,110.376v10.723h1.947
			c1.917,0,3.308-0.169,4.172-0.509s1.57-0.91,2.12-1.712c0.549-0.802,0.824-1.789,0.824-2.962c0-1.804-0.654-3.203-1.962-4.198
			c-1.178-0.895-3.071-1.342-5.677-1.342H156.199z"/>
		<path fill="#FFFFFF" d="M183.29,106.829c3.118,0,5.798,0.871,8.042,2.611c2.243,1.742,3.365,3.863,3.365,6.367
			c0,2.48-1.107,4.58-3.32,6.297c-2.213,1.719-4.899,2.577-8.057,2.577c-3.308,0-6.056-0.882-8.244-2.646
			c-2.188-1.765-3.283-3.859-3.283-6.287c0-1.625,0.51-3.119,1.529-4.482c1.02-1.363,2.421-2.443,4.205-3.241
			S181.231,106.829,183.29,106.829z M183.245,109.995c-2.04,0-3.754,0.547-5.144,1.641c-1.39,1.094-2.084,2.484-2.084,4.172
			c0,1.879,0.875,3.366,2.624,4.46c1.359,0.854,2.919,1.282,4.678,1.282c1.989,0,3.684-0.555,5.083-1.664
			c1.4-1.109,2.1-2.477,2.1-4.102c0-1.617-0.705-2.986-2.114-4.107C186.979,110.555,185.264,109.995,183.245,109.995z"/>
		<path fill="#FFFFFF" d="M197.899,107.256h4.969c3.203,0,5.583,0.307,7.139,0.919c1.557,0.612,2.839,1.608,3.847,2.987
			s1.512,2.988,1.512,4.829c0,1.31-0.282,2.513-0.846,3.61c-0.564,1.098-1.342,2.01-2.335,2.733
			c-0.993,0.724-2.068,1.225-3.225,1.502s-3.163,0.416-6.017,0.416h-5.043V107.256z M202.063,110.376v10.723h1.947
			c1.917,0,3.308-0.169,4.172-0.509s1.57-0.91,2.12-1.712c0.549-0.802,0.824-1.789,0.824-2.962c0-1.804-0.654-3.203-1.962-4.198
			c-1.178-0.895-3.071-1.342-5.677-1.342H202.063z"/>
		<path fill="#FFFFFF" d="M229.461,106.829c3.118,0,5.798,0.871,8.042,2.611c2.243,1.742,3.365,3.863,3.365,6.367
			c0,2.48-1.107,4.58-3.32,6.297c-2.213,1.719-4.899,2.577-8.057,2.577c-3.308,0-6.056-0.882-8.244-2.646
			c-2.188-1.765-3.283-3.859-3.283-6.287c0-1.625,0.51-3.119,1.529-4.482c1.02-1.363,2.421-2.443,4.205-3.241
			S227.402,106.829,229.461,106.829z M229.417,109.995c-2.04,0-3.754,0.547-5.144,1.641c-1.39,1.094-2.084,2.484-2.084,4.172
			c0,1.879,0.875,3.366,2.624,4.46c1.359,0.854,2.919,1.282,4.678,1.282c1.989,0,3.684-0.555,5.083-1.664
			c1.4-1.109,2.1-2.477,2.1-4.102c0-1.617-0.705-2.986-2.114-4.107C233.15,110.555,231.436,109.995,229.417,109.995z"/>
		<path fill="#FFFFFF" d="M244.071,107.256h4.023l9.428,11.186v-11.186h4.194v16.997h-4.034l-9.417-11.15v11.15h-4.194V107.256z"/>
		<path fill="#FFFFFF" d="M265.805,107.256h12.178v3.189h-4.015v13.808h-4.254v-13.808h-3.909V107.256z"/>
		<path fill="#FFFFFF" d="M281.327,107.256h4.164v16.997h-4.164V107.256z"/>
		<path fill="#FFFFFF" d="M310.461,110.244l-2.934,2.157c-1.995-1.627-4.24-2.44-6.734-2.44c-2.105,0-3.879,0.556-5.32,1.665
			c-1.442,1.111-2.163,2.479-2.163,4.106c0,1.134,0.319,2.14,0.958,3.019s1.541,1.569,2.709,2.07
			c1.167,0.502,2.465,0.752,3.892,0.752c1.217,0,2.329-0.176,3.337-0.526s2.115-0.989,3.322-1.914l2.844,2.288
			c-1.628,1.227-3.166,2.076-4.613,2.55c-1.448,0.474-3.101,0.711-4.958,0.711c-3.426,0-6.229-0.838-8.411-2.513
			c-2.183-1.676-3.273-3.823-3.273-6.442c0-1.694,0.497-3.2,1.49-4.518c0.994-1.317,2.417-2.376,4.27-3.178
			c1.853-0.801,3.848-1.202,5.984-1.202c1.817,0,3.567,0.297,5.25,0.889S309.243,109.152,310.461,110.244z"/>
		<path fill="#FFFFFF" d="M329.437,107.256h4.253l8.476,16.997h-4.359l-1.724-3.501h-8.991l-1.793,3.501h-4.359L329.437,107.256z
			 M331.589,111.762l-2.956,5.836h5.896L331.589,111.762z"/>
		<path fill="#FFFFFF" d="M356.973,109.567l-3.106,2.115c-1.091-1.171-2.201-1.756-3.332-1.756c-0.55,0-1,0.113-1.351,0.34
			c-0.35,0.229-0.525,0.484-0.525,0.77s0.125,0.555,0.376,0.809c0.34,0.339,1.365,1.066,3.075,2.184
			c1.601,1.032,2.571,1.684,2.911,1.953c0.851,0.662,1.453,1.295,1.809,1.9c0.355,0.604,0.532,1.266,0.532,1.981
			c0,1.394-0.624,2.546-1.874,3.454c-1.25,0.91-2.879,1.364-4.889,1.364c-1.569,0-2.937-0.297-4.102-0.89
			c-1.164-0.594-2.161-1.525-2.991-2.797l3.525-1.641c1.061,1.502,2.28,2.254,3.661,2.254c0.72,0,1.325-0.162,1.814-0.486
			c0.49-0.322,0.735-0.696,0.735-1.12c0-0.386-0.185-0.771-0.555-1.155s-1.186-0.975-2.446-1.768c-2.4-1.51-3.951-2.676-4.651-3.496
			s-1.051-1.639-1.051-2.455c0-1.179,0.583-2.189,1.747-3.033c1.165-0.844,2.603-1.266,4.312-1.266c1.1,0,2.146,0.197,3.142,0.59
			S355.813,108.528,356.973,109.567z"/>
		<path fill="#FFFFFF" d="M372.926,109.567l-3.106,2.115c-1.091-1.171-2.201-1.756-3.332-1.756c-0.55,0-1,0.113-1.351,0.34
			c-0.35,0.229-0.525,0.484-0.525,0.77s0.125,0.555,0.376,0.809c0.34,0.339,1.365,1.066,3.075,2.184
			c1.601,1.032,2.571,1.684,2.911,1.953c0.851,0.662,1.453,1.295,1.809,1.9c0.355,0.604,0.532,1.266,0.532,1.981
			c0,1.394-0.624,2.546-1.874,3.454c-1.25,0.91-2.879,1.364-4.889,1.364c-1.569,0-2.937-0.297-4.102-0.89
			c-1.164-0.594-2.161-1.525-2.991-2.797l3.525-1.641c1.061,1.502,2.28,2.254,3.661,2.254c0.72,0,1.325-0.162,1.814-0.486
			c0.49-0.322,0.735-0.696,0.735-1.12c0-0.386-0.185-0.771-0.555-1.155s-1.186-0.975-2.446-1.768c-2.4-1.51-3.951-2.676-4.651-3.496
			s-1.051-1.639-1.051-2.455c0-1.179,0.583-2.189,1.747-3.033c1.165-0.844,2.603-1.266,4.312-1.266c1.1,0,2.146,0.197,3.142,0.59
			S371.766,108.528,372.926,109.567z"/>
		<path fill="#FFFFFF" d="M387.718,106.829c3.117,0,5.798,0.871,8.041,2.611c2.244,1.742,3.365,3.863,3.365,6.367
			c0,2.48-1.106,4.58-3.32,6.297c-2.213,1.719-4.898,2.577-8.056,2.577c-3.309,0-6.056-0.882-8.244-2.646
			c-2.188-1.765-3.283-3.859-3.283-6.287c0-1.625,0.51-3.119,1.529-4.482s2.421-2.443,4.204-3.241S385.66,106.829,387.718,106.829z
			 M387.673,109.995c-2.04,0-3.754,0.547-5.144,1.641s-2.084,2.484-2.084,4.172c0,1.879,0.874,3.366,2.624,4.46
			c1.359,0.854,2.919,1.282,4.679,1.282c1.988,0,3.683-0.555,5.083-1.664c1.399-1.109,2.1-2.477,2.1-4.102
			c0-1.617-0.705-2.986-2.115-4.107C391.407,110.555,389.692,109.995,387.673,109.995z"/>
		<path fill="#FFFFFF" d="M423.332,110.244l-2.934,2.157c-1.995-1.627-4.24-2.44-6.734-2.44c-2.105,0-3.879,0.556-5.32,1.665
			c-1.442,1.111-2.163,2.479-2.163,4.106c0,1.134,0.319,2.14,0.958,3.019s1.541,1.569,2.709,2.07
			c1.167,0.502,2.465,0.752,3.892,0.752c1.217,0,2.329-0.176,3.337-0.526s2.115-0.989,3.322-1.914l2.844,2.288
			c-1.628,1.227-3.166,2.076-4.613,2.55c-1.448,0.474-3.101,0.711-4.958,0.711c-3.426,0-6.229-0.838-8.411-2.513
			c-2.183-1.676-3.273-3.823-3.273-6.442c0-1.694,0.497-3.2,1.49-4.518c0.994-1.317,2.417-2.376,4.27-3.178
			c1.853-0.801,3.848-1.202,5.984-1.202c1.817,0,3.567,0.297,5.25,0.889S422.113,109.152,423.332,110.244z"/>
		<path fill="#FFFFFF" d="M426.702,107.256h4.164v16.997h-4.164V107.256z"/>
		<path fill="#FFFFFF" d="M442.307,107.256h4.253l8.476,16.997h-4.359l-1.724-3.501h-8.991l-1.793,3.501h-4.359L442.307,107.256z
			 M444.459,111.762l-2.956,5.836h5.896L444.459,111.762z"/>
		<path fill="#FFFFFF" d="M456.107,107.256h12.178v3.189h-4.014v13.808h-4.255v-13.808h-3.909V107.256z"/>
		<path fill="#FFFFFF" d="M471.175,107.256h12.028v3.166h-7.863v3.074h7.863v3.107h-7.863v4.472h7.863v3.178h-12.028V107.256z"/>
		<path fill="#FFFFFF" d="M498.678,109.567l-3.106,2.115c-1.091-1.171-2.201-1.756-3.332-1.756c-0.55,0-1,0.113-1.351,0.34
			c-0.35,0.229-0.525,0.484-0.525,0.77s0.125,0.555,0.376,0.809c0.34,0.339,1.365,1.066,3.075,2.184
			c1.601,1.032,2.571,1.684,2.911,1.953c0.851,0.662,1.453,1.295,1.809,1.9c0.355,0.604,0.532,1.266,0.532,1.981
			c0,1.394-0.624,2.546-1.874,3.454c-1.25,0.91-2.879,1.364-4.889,1.364c-1.569,0-2.937-0.297-4.102-0.89
			c-1.164-0.594-2.161-1.525-2.991-2.797l3.525-1.641c1.061,1.502,2.28,2.254,3.661,2.254c0.72,0,1.325-0.162,1.814-0.486
			c0.49-0.322,0.735-0.696,0.735-1.12c0-0.386-0.185-0.771-0.555-1.155s-1.186-0.975-2.446-1.768c-2.4-1.51-3.951-2.676-4.651-3.496
			s-1.051-1.639-1.051-2.455c0-1.179,0.583-2.189,1.747-3.033c1.165-0.844,2.603-1.266,4.312-1.266c1.1,0,2.146,0.197,3.142,0.59
			S497.518,108.528,498.678,109.567z"/>
	</g>
</g>
<g id="Hinsdale">
</g>
<g id="Wheaton">
</g>
</svg>
