
<svg width="297px" height="297px" viewBox="0 0 297 297" version="1.1" xmlns="http://www.w3.org/2000/svg" xmlns:xlink="http://www.w3.org/1999/xlink">
    <!-- Generator: Sketch 43.2 (39069) - http://www.bohemiancoding.com/sketch -->
    <desc>Created with Sketch.</desc>
    <defs></defs>
    <g id="Page-1" stroke="none" stroke-width="1" fill="none" fill-rule="evenodd">
        <g id="tooth" fill-rule="nonzero">
            <circle id="Oval" fill="#47935E" cx="148.5" cy="148.5" r="148.5"></circle>
            <path d="M296.729,139.625 L223.333,66.229 L153.292,168.924 L130.844,173.678 L109.039,219.484 L115.127,224.88 L100.358,246.535 L150.848,296.97 C231.778,295.714 297,229.729 297,148.5 C297,145.52 296.902,142.563 296.729,139.625 Z" id="Shape" fill="#74B387"></path>
            <path d="M148.5,182.929 C170.25,182.929 174.745,220.421 178.74,242.745 C179.865,249.03 193.383,250.936 197.26,245.863 C245.596,182.613 241.24,113.339 237.189,94.241 C232.71,73.125 220.172,56.232 199.18,56.232 C178.19,56.232 163.341,63.367 148.501,78.208 C133.661,63.367 118.812,56.232 97.822,56.232 C76.83,56.232 64.292,73.125 59.813,94.241 C55.762,113.339 51.405,182.613 99.742,245.863 C103.619,250.936 117.137,249.031 118.262,242.745 C122.255,220.421 126.75,182.929 148.5,182.929 Z" id="Shape" fill="#FFFFFF"></path>
            <path d="M237.188,94.241 C232.709,73.125 220.171,56.232 199.179,56.232 C178.189,56.232 163.34,63.367 148.5,78.208 C148.389,78.097 148.278,77.996 148.167,77.886 L148.167,182.948 C148.28,182.946 148.386,182.93 148.5,182.93 C170.25,182.93 174.745,220.422 178.74,242.746 C179.865,249.031 193.383,250.937 197.26,245.863 C245.596,182.613 241.24,113.339 237.188,94.241 Z" id="Shape" fill="#EDECEB"></path>
        </g>
    </g>
</svg>